<svg display="none" xmlns="http://www.w3.org/2000/svg" xmlns:xlink="http://www.w3.org/1999/xlink">
    <symbol id="logo" viewBox="0 0 256 99">
        <g clip-path="url(#clip0_968_526)">
            <mask id="mask0_968_526" style="mask-type: luminance" maskUnits="userSpaceOnUse" x="0" y="-71" height="256">
                <path d="M254.893 -70.5H0V184.393H254.893V-70.5Z" fill="white" />
            </mask>
            <g mask="url(#mask0_968_526)">
                <path
                    d="M21.3855 70.5861C21.2498 70.5861 21.1355 70.5504 21.0498 70.4861C20.9641 70.4218 20.9141 70.3147 20.9141 70.1647V60.0718C20.9141 59.929 20.9569 59.8218 21.0498 59.7504C21.1355 59.679 21.2498 59.6504 21.3855 59.6504H23.8283C24.0855 59.6504 24.2212 59.7718 24.2212 60.0218V63.0075C24.2212 63.1432 24.2926 63.2075 24.4283 63.2075H35.6926C35.9926 63.2075 36.1426 63.3147 36.1426 63.529V66.7361C36.1426 66.9361 36.0069 67.0361 35.7355 67.0361H24.5069C24.3141 67.0361 24.2212 67.1004 24.2212 67.2218V70.1932C24.2212 70.4504 24.0926 70.579 23.8283 70.579H21.3855V70.5861Z"
                    stroke="#171044" stroke-width="0.714286" stroke-miterlimit="10" />
            </g>
            <mask id="mask1_968_526" style="mask-type: luminance" maskUnits="userSpaceOnUse" x="0" y="-71" width="255"
                height="256">
                <path d="M254.893 -70.5H0V184.393H254.893V-70.5Z" fill="white" />
            </mask>
            <g mask="url(#mask1_968_526)">
                <path
                    d="M30.0426 53.3571C30.0426 53.5356 30.1426 53.6285 30.3498 53.6285H35.5426C35.9426 53.6285 36.1355 53.8142 36.1355 54.1856V56.9999C36.1355 57.1785 36.0926 57.2999 36.0141 57.3642C35.9355 57.4285 35.7998 57.4571 35.6212 57.4571H21.3855C21.0712 57.4571 20.9141 57.3499 20.9141 57.1356V53.9285C20.9141 53.7285 21.0569 53.6213 21.3426 53.6213H26.0998C26.3712 53.6213 26.5141 53.5213 26.5141 53.3142V50.4785C26.5141 50.2785 26.3783 50.1785 26.0998 50.1785H21.3426C21.0569 50.1785 20.9141 50.0785 20.9141 49.8713V46.6642C20.9141 46.4499 21.0712 46.3428 21.3855 46.3428H35.6212C35.7998 46.3428 35.9283 46.3713 36.0141 46.4356C36.0998 46.4999 36.1355 46.6213 36.1355 46.7999V49.6142C36.1355 49.9856 35.9355 50.1713 35.5426 50.1713H30.3498C30.1426 50.1713 30.0426 50.2642 30.0426 50.4428V53.3571Z"
                    stroke="#171044" stroke-width="0.714286" stroke-miterlimit="10" />
            </g>
            <mask id="mask2_968_526" style="mask-type: luminance" maskUnits="userSpaceOnUse" x="0" y="-71" width="255"
                height="256">
                <path d="M254.893 -70.5H0V184.393H254.893V-70.5Z" fill="white" />
            </mask>
            <g mask="url(#mask2_968_526)">
                <path
                    d="M20.9141 43.4357V34.3285C20.9141 34.1285 21.0569 34.0214 21.3426 34.0214L23.7212 34.0357C24.0926 34.0357 24.2783 34.1857 24.2783 34.4714V39.5357C24.2783 39.7928 24.4069 39.9214 24.6712 39.9214H26.4141C26.6998 39.9214 26.8426 39.8214 26.8426 39.6143V36.5785C26.8426 36.3428 26.9783 36.2214 27.2498 36.2214H29.7926C29.8855 36.2214 29.9712 36.2428 30.0355 36.2928C30.1069 36.3357 30.1355 36.4143 30.1355 36.5285V39.65C30.1355 39.8285 30.2283 39.9214 30.4212 39.9214H32.4712C32.6641 39.9214 32.7569 39.85 32.7569 39.7214V34.2357C32.7569 33.9857 32.8855 33.8643 33.1498 33.8643H35.6712C35.7926 33.8643 35.8998 33.8928 35.9855 33.9571C36.0712 34.0214 36.1212 34.1214 36.1212 34.2714V43.3C36.1212 43.6071 35.9498 43.7571 35.6069 43.7571H21.3855C21.0712 43.7571 20.9141 43.65 20.9141 43.4357Z"
                    stroke="#171044" stroke-width="0.714286" stroke-miterlimit="10" />
            </g>
            <mask id="mask3_968_526" style="mask-type: luminance" maskUnits="userSpaceOnUse" x="0" y="-71" width="255"
                height="256">
                <path d="M254.893 -70.5H0V184.393H254.893V-70.5Z" fill="white" />
            </mask>
            <g mask="url(#mask3_968_526)">
                <path
                    d="M42.4285 71.436C42.2071 71.2146 42.0928 70.9503 42.0928 70.636V34.9431C42.0928 34.5646 42.2142 34.2503 42.4499 33.9931C42.6928 33.736 42.9999 33.6074 43.3785 33.6074H58.7071C64.0213 33.6074 68.0642 34.4574 70.8428 36.1503C73.6213 37.8503 75.0071 40.3574 75.0071 43.686C75.0071 45.4717 74.5285 46.986 73.5642 48.236C72.6071 49.486 70.8356 50.7146 68.2642 51.9146C68.1928 51.9503 68.1642 52.0074 68.1642 52.0931C68.1642 52.1789 68.1999 52.236 68.2642 52.2717C71.1071 53.336 73.0999 54.5717 74.2285 55.9717C75.3571 57.3788 75.9285 59.1788 75.9285 61.3717C75.9285 64.9003 74.5856 67.5146 71.8928 69.2146C69.1999 70.9146 65.0785 71.7574 59.5213 71.7574H43.2785C42.9356 71.7717 42.6499 71.6646 42.4285 71.436ZM59.5285 48.5289C60.1428 48.5289 60.6928 48.4431 61.1713 48.2717C61.6499 48.1003 62.0642 47.8503 62.4071 47.5289C62.7499 47.2003 63.0142 46.836 63.2071 46.4217C63.3928 46.0074 63.4928 45.5503 63.4928 45.036C63.4928 43.9074 63.0713 43.0074 62.2356 42.336C61.3928 41.6646 60.3785 41.336 59.1785 41.336H54.9642C54.1785 41.336 53.7785 41.6788 53.7785 42.3646V47.4074C53.7785 48.1646 54.0713 48.536 54.6499 48.536H59.5285V48.5289ZM59.2713 64.0574C60.7785 64.0574 61.9142 63.6431 62.6642 62.8217C63.4213 62.0003 63.7928 61.0931 63.7928 60.0931C63.7928 59.3717 63.6142 58.736 63.2499 58.1931C62.8928 57.6431 62.3928 57.2146 61.7571 56.9074C61.1213 56.6003 60.3785 56.4431 59.5213 56.4431H54.9428C54.1571 56.4431 53.7571 56.8003 53.7571 57.5217V62.9217C53.7571 63.6788 54.0499 64.0503 54.6285 64.0503H59.2713V64.0574Z"
                    fill="#171044" />
            </g>
            <mask id="mask4_968_526" style="mask-type: luminance" maskUnits="userSpaceOnUse" x="0" y="-71" width="255"
                height="256">
                <path d="M254.893 -70.5H0V184.393H254.893V-70.5Z" fill="white" />
            </mask>
            <g mask="url(#mask4_968_526)">
                <path
                    d="M89.772 69.8925C86.9934 68.2996 84.8505 66.0353 83.3434 63.1068C81.8362 60.1782 81.0791 56.7353 81.0791 52.7925C81.0791 48.8139 81.8505 45.3496 83.3934 42.4068C84.9362 39.4568 87.0934 37.171 89.872 35.5425C92.6505 33.9139 95.8862 33.0996 99.5934 33.0996C103.293 33.0996 106.529 33.9139 109.286 35.5425C112.043 37.171 114.186 39.4568 115.715 42.4068C117.243 45.3568 118.001 48.821 118.001 52.7925C118.001 56.7353 117.243 60.1639 115.736 63.0782C114.229 65.9925 112.093 68.2568 109.336 69.8639C106.579 71.4782 103.329 72.2782 99.5934 72.2782C95.822 72.2853 92.5505 71.4853 89.772 69.8925ZM104.351 61.6925C105.293 59.9782 105.765 57.0639 105.765 52.9496C105.765 48.6996 105.286 45.6496 104.322 43.7925C103.365 41.9425 101.786 41.0139 99.5934 41.0139C97.3648 41.0139 95.7648 41.9425 94.7862 43.7925C93.8077 45.6425 93.322 48.6996 93.322 52.9496C93.322 57.0639 93.7934 59.9782 94.7362 61.6925C95.6791 63.4068 97.3005 64.2639 99.5934 64.2639C101.822 64.2639 103.408 63.4068 104.351 61.6925Z"
                    fill="#171044" />
            </g>
            <mask id="mask5_968_526" style="mask-type: luminance" maskUnits="userSpaceOnUse" x="0" y="-71" width="255"
                height="256">
                <path d="M254.893 -70.5H0V184.393H254.893V-70.5Z" fill="white" />
            </mask>
            <g mask="url(#mask5_968_526)">
                <path
                    d="M120.986 71.2289C120.814 70.8717 120.829 70.4146 121.036 69.8646L133.479 34.7931C133.65 34.3789 133.836 34.0788 134.043 33.8931C134.25 33.7074 134.571 33.6074 135.021 33.6074H145.157C146.05 33.6074 146.664 34.0717 147.007 34.9931L159.35 70.0146C159.486 70.3574 159.493 70.736 159.379 71.1431C159.264 71.5503 159.007 71.7574 158.636 71.7574H148.557C147.971 71.7574 147.593 71.4646 147.429 70.886L145.421 64.9717C145.35 64.8003 145.279 64.6574 145.193 64.536C145.107 64.4146 144.929 64.3574 144.65 64.3574H133.75C133.336 64.3574 133.079 64.5431 132.979 64.9217L130.871 70.9931C130.8 71.2003 130.671 71.3789 130.486 71.536C130.3 71.6931 130.014 71.7646 129.636 71.7646H121.821C121.436 71.7717 121.157 71.5931 120.986 71.2289ZM142.071 55.6217C142.586 55.6217 142.743 55.2789 142.536 54.5931L139.45 45.8003C139.379 45.6289 139.279 45.5431 139.143 45.5431C139.007 45.5431 138.9 45.6289 138.836 45.8003L135.7 54.5431C135.429 55.2646 135.6 55.6217 136.214 55.6217H142.071Z"
                    fill="#171044" />
            </g>
            <mask id="mask6_968_526" style="mask-type: luminance" maskUnits="userSpaceOnUse" x="0" y="-71" width="255"
                height="256">
                <path d="M254.893 -70.5H0V184.393H254.893V-70.5Z" fill="white" />
            </mask>
            <g mask="url(#mask6_968_526)">
                <path
                    d="M158.529 34.7931C158.529 34.4503 158.629 34.1646 158.836 33.9431C159.043 33.7217 159.365 33.6074 159.815 33.6074H190.565C191.007 33.6074 191.336 33.7217 191.543 33.9431C191.75 34.1646 191.85 34.4503 191.85 34.7931V40.9146C191.85 41.5646 191.472 41.8931 190.722 41.8931H181.622C181.207 41.8931 181.007 42.0646 181.007 42.4074V70.6431C181.007 71.4003 180.679 71.7717 180.029 71.7717H170.257C169.643 71.7717 169.329 71.4289 169.329 70.7431V42.6146C169.329 42.136 169.143 41.8931 168.765 41.8931H159.715C158.929 41.8931 158.536 41.5646 158.536 40.9146V34.7931H158.529Z"
                    fill="#171044" />
            </g>
            <mask id="mask7_968_526" style="mask-type: luminance" maskUnits="userSpaceOnUse" x="0" y="-71" width="255"
                height="256">
                <path d="M254.893 -70.5H0V184.393H254.893V-70.5Z" fill="white" />
            </mask>
            <g mask="url(#mask7_968_526)">
                <path
                    d="M217.421 41.9428C216.493 41.3571 215.021 41.0713 213 41.0713C211.079 41.0713 209.729 41.3499 208.936 41.8928C208.143 42.4428 207.75 43.0428 207.75 43.6928C207.75 43.9999 207.843 44.3213 208.036 44.6428C208.221 44.9713 208.557 45.2785 209.036 45.5713C209.514 45.8642 210.186 46.1142 211.043 46.3142L219.579 48.5285C222.8 49.3142 225.179 50.7213 226.7 52.7428C228.229 54.7642 228.986 57.0999 228.986 59.7356C228.986 62.2713 228.314 64.4856 226.979 66.3713C225.643 68.2571 223.743 69.7142 221.293 70.7428C218.843 71.7713 215.921 72.2856 212.521 72.2856C210.021 72.2856 207.643 71.9999 205.4 71.4356C203.157 70.8713 201.193 70.0713 199.514 69.0428C197.836 68.0142 196.586 66.8285 195.757 65.4928C195.55 65.1142 195.464 64.8071 195.5 64.5642C195.536 64.3213 195.721 64.0642 196.064 63.7928L201.364 60.1428C201.843 59.8356 202.236 59.7071 202.543 59.7571C202.85 59.8071 203.107 59.9713 203.314 60.2428C204.071 61.1999 204.821 61.9928 205.579 62.6071C206.336 63.2213 207.2 63.6713 208.179 63.9428C209.157 64.2142 210.314 64.3571 211.65 64.3571C213.536 64.3571 215.043 64.0999 216.179 63.5856C217.307 63.0713 217.879 62.3356 217.879 61.3713C217.879 60.9571 217.757 60.5713 217.521 60.2142C217.279 59.8571 216.929 59.5356 216.464 59.2642C216 58.9928 215.393 58.7642 214.636 58.5928L206.821 56.6928C204.764 56.1785 202.979 55.3642 201.471 54.2499C199.964 53.1356 198.8 51.8071 197.971 50.2642C197.15 48.7213 196.736 47.0571 196.736 45.2785C196.736 43.0499 197.379 41.0071 198.664 39.1571C199.95 37.3071 201.786 35.8285 204.164 34.7356C206.55 33.6356 209.35 33.0928 212.571 33.0928C214.629 33.0928 216.593 33.3213 218.457 33.7856C220.329 34.2499 222 34.8928 223.471 35.7142C224.943 36.5356 226.079 37.5142 226.864 38.6428C227.036 38.8856 227.164 39.1285 227.25 39.3856C227.336 39.6428 227.207 39.9071 226.864 40.1856L221.257 44.2499C221.014 44.4213 220.793 44.4785 220.593 44.4285C220.386 44.3785 220.093 44.1785 219.721 43.8356C219.114 43.1571 218.343 42.5285 217.421 41.9428Z"
                    fill="#171044" />
            </g>
            <mask id="mask8_968_526" style="mask-type: luminance" maskUnits="userSpaceOnUse" x="0" y="-71" width="255"
                height="256">
                <path d="M254.893 -70.5H0V184.393H254.893V-70.5Z" fill="white" />
            </mask>
            <g mask="url(#mask8_968_526)">
                <path
                    d="M241.614 62.8282C240.321 63.6996 239.057 64.621 237.729 65.4424C229.336 70.6282 220.043 73.4639 210.364 75.2996C193.786 78.4424 177.021 78.7639 160.236 78.3139C148.264 77.9924 136.3 77.3567 124.343 76.7139C109.929 75.9424 95.5285 74.821 81.1 74.1996C62.7857 73.4067 44.45 73.121 26.2214 75.7639C23.7928 76.1139 21.3928 76.621 18.8643 76.8139C19.6357 76.4639 20.3857 76.0853 21.1714 75.7782C35.9071 69.9639 51.3357 67.4567 67.1214 66.671C83.1357 65.871 99.1 66.8353 115.064 67.8853C134.6 69.1782 154.129 70.7567 173.693 71.3067C196.329 71.9424 218.75 69.821 240.379 62.5853C240.693 62.4782 241.05 62.4996 241.393 62.4639C241.464 62.5782 241.543 62.7067 241.614 62.8282Z"
                    fill="#FBAA19" />
            </g>
        </g>
        <defs>
            <clipPath id="clip0_968_526">
                <rect width="255.238" height="97.1429" fill="white" transform="translate(0 0.928711)" />
            </clipPath>
        </defs>
    </symbol>


    <symbol id="share" viewBox="0 0 37 37">
        <g>
            <path
                d="M0.238281 18.5004C0.238281 8.55841 8.29725 0.5 18.2381 0.5C28.1793 0.5 36.2383 8.55841 36.2383 18.5004C36.2383 28.4411 28.1793 36.5 18.2381 36.5C8.29725 36.5 0.238281 28.4411 0.238281 18.5004Z" />
            <path
                d="M10.867 22.4685C13.0232 22.4685 14.7711 20.7205 14.7711 18.5643C14.7711 16.4081 13.0232 14.6602 10.867 14.6602C8.71082 14.6602 6.96289 16.4081 6.96289 18.5643C6.96289 20.7205 8.71082 22.4685 10.867 22.4685Z"
                fill="white" />
            <path
                d="M22.7855 15.528C24.9416 15.528 26.6896 13.7801 26.6896 11.6239C26.6896 9.46767 24.9416 7.71973 22.7855 7.71973C20.6293 7.71973 18.8813 9.46767 18.8813 11.6239C18.8813 13.7801 20.6293 15.528 22.7855 15.528Z"
                fill="white" />
            <path
                d="M22.7855 29.28C24.9416 29.28 26.6896 27.532 26.6896 25.3758C26.6896 23.2196 24.9416 21.4717 22.7855 21.4717C20.6293 21.4717 18.8813 23.2196 18.8813 25.3758C18.8813 27.532 20.6293 29.28 22.7855 29.28Z"
                fill="white" />
            <path d="M11.3965 19.3389L10.3401 17.5247L22.2579 10.5852L23.3143 12.3994L11.3965 19.3389Z" fill="white" />
            <path d="M22.2568 26.2793L10.3391 19.3398L11.3954 17.5256L23.3132 24.4651L22.2568 26.2793Z" fill="white" />
        </g>
    </symbol>



    <symbol id="instagram" viewBox="0 0 37 37">
        <g>
            <path
                d="M18.2383 12.1935C14.7553 12.1935 11.9318 15.017 11.9318 18.5C11.9318 21.983 14.7553 24.8065 18.2383 24.8065C21.7212 24.8065 24.5447 21.983 24.5447 18.5C24.5447 15.017 21.7212 12.1935 18.2383 12.1935Z" />
            <path fill-rule="evenodd" clip-rule="evenodd"
                d="M1.23828 17.9516C1.23828 11.0973 1.23828 7.67009 2.98382 5.26755C3.54756 4.49164 4.22992 3.80928 5.00584 3.24554C7.40837 1.5 10.8355 1.5 17.6899 1.5H18.7867C25.641 1.5 29.0682 1.5 31.4707 3.24554C32.2466 3.80928 32.929 4.49164 33.4927 5.26755C35.2383 7.67009 35.2383 11.0973 35.2383 17.9516V19.0484C35.2383 25.9027 35.2383 29.3299 33.4927 31.7324C32.929 32.5084 32.2466 33.1907 31.4707 33.7545C29.0682 35.5 25.641 35.5 18.7867 35.5H17.6899C10.8355 35.5 7.40837 35.5 5.00584 33.7545C4.22992 33.1907 3.54756 32.5084 2.98382 31.7324C1.23828 29.3299 1.23828 25.9027 1.23828 19.0484V17.9516ZM8.8243 18.5C8.8243 13.3008 13.0391 9.08602 18.2383 9.08602C23.4375 9.08602 27.6523 13.3008 27.6523 18.5C27.6523 23.6992 23.4375 27.914 18.2383 27.914C13.0391 27.914 8.8243 23.6992 8.8243 18.5ZM28.2235 6.43548C27.0499 6.43548 26.0985 7.38688 26.0985 8.56048C26.0985 9.73409 27.0499 10.6855 28.2235 10.6855C29.3971 10.6855 30.3485 9.73409 30.3485 8.56048C30.3485 7.38688 29.3971 6.43548 28.2235 6.43548Z" />
        </g>
    </symbol>



    <symbol id="youtobe" viewBox="0 0 37 37">
        <g>
            <path d="M15.7422 21.404L20.7348 18.5075L15.7422 15.5967V21.404Z" />
            <path
                d="M18.2383 0.5C14.6782 0.5 11.1981 1.55568 8.23803 3.53355C5.27794 5.51141 2.97084 8.32263 1.60846 11.6117C0.24608 14.9008 -0.11038 18.52 0.584154 22.0116C1.27869 25.5033 2.99302 28.7106 5.51037 31.2279C8.02771 33.7453 11.235 35.4596 14.7267 36.1541C18.2183 36.8487 21.8375 36.4922 25.1266 35.1298C28.4157 33.7675 31.2269 31.4603 33.2047 28.5003C35.1826 25.5402 36.2383 22.0601 36.2383 18.5C36.2383 13.7261 34.3419 9.14773 30.9662 5.77208C27.5906 2.39642 23.0122 0.5 18.2383 0.5ZM27.712 21.6855C27.7123 22.1563 27.6198 22.6225 27.4399 23.0576C27.2599 23.4926 26.996 23.8879 26.6632 24.2209C26.3305 24.5539 25.9353 24.8181 25.5004 24.9983C25.0655 25.1785 24.5993 25.2713 24.1286 25.2713H12.348C11.8772 25.2713 11.4111 25.1785 10.9762 24.9983C10.5412 24.8181 10.1461 24.5539 9.81333 24.2209C9.48055 23.8879 9.21664 23.4926 9.0367 23.0576C8.85675 22.6225 8.76429 22.1563 8.76461 21.6855V15.3145C8.76429 14.8437 8.85675 14.3775 9.0367 13.9424C9.21664 13.5074 9.48055 13.1121 9.81333 12.7791C10.1461 12.4461 10.5412 12.1819 10.9762 12.0017C11.4111 11.8215 11.8772 11.7287 12.348 11.7287H24.1286C24.5993 11.7287 25.0655 11.8215 25.5004 12.0017C25.9353 12.1819 26.3305 12.4461 26.6632 12.7791C26.996 13.1121 27.2599 13.5074 27.4399 13.9424C27.6198 14.3775 27.7123 14.8437 27.712 15.3145V21.6855Z" />
        </g>
    </symbol>



    <symbol id="facebook" viewBox="0 0 37 37">
        <g>
            <path
                d="M36.2383 18.6094C36.2383 8.60849 28.1788 0.5 18.2383 0.5C8.29778 0.5 0.238281 8.60849 0.238281 18.6094C0.238281 27.649 6.82028 35.1403 15.4258 36.4985V23.8445H10.8553V18.6079H15.4258V14.6208C15.4258 10.0829 18.1138 7.57474 22.2253 7.57474C24.1933 7.57474 26.2543 7.92939 26.2543 7.92939V12.3858H23.9833C21.7468 12.3858 21.0493 13.7817 21.0493 15.2139V18.6094H26.0413L25.2433 23.8461H21.0493V36.5C29.6563 35.1403 36.2383 27.6475 36.2383 18.6094Z" />
        </g>
    </symbol>
</svg>