<svg aria-hidden="true" style="position: absolute; width: 0; height: 0; overflow: hidden;" version="1.1" xmlns="http://www.w3.org/2000/svg" xmlns:xlink="http://www.w3.org/1999/xlink">
<defs>
<symbol id="icon-instagram" viewBox="0 0 32 32">
<path d="M15.773 10.546c-3.012 0-5.454 2.442-5.454 5.454s2.442 5.454 5.454 5.454v0c3.012 0 5.454-2.442 5.454-5.454s-2.442-5.454-5.454-5.454v0z"></path>
<path d="M1.071 15.526c0-5.929 0-8.893 1.51-10.97 0.495-0.676 1.073-1.254 1.727-1.733l0.022-0.015c2.077-1.51 5.042-1.51 10.97-1.51h0.949c5.928 0 8.892 0 10.97 1.51 0.676 0.495 1.254 1.073 1.733 1.727l0.015 0.022c1.509 2.077 1.509 5.042 1.509 10.97v0.948c0 5.929 0 8.893-1.509 10.97-0.495 0.677-1.073 1.254-1.727 1.734l-0.022 0.015c-2.078 1.509-5.043 1.509-10.97 1.509h-0.949c-5.929 0-8.893 0-10.97-1.509-0.676-0.495-1.254-1.073-1.733-1.727l-0.015-0.022c-1.51-2.077-1.51-5.042-1.51-10.97v-0.948zM7.632 16c0-4.497 3.645-8.142 8.142-8.142s8.142 3.645 8.142 8.142v0c0 4.497-3.645 8.142-8.142 8.142s-8.142-3.645-8.142-8.142v0zM24.41 5.565c-1.015 0-1.838 0.823-1.838 1.838s0.823 1.838 1.838 1.838v0c1.015 0 1.838-0.823 1.838-1.838s-0.823-1.838-1.838-1.838v0z"></path>
</symbol>
<symbol id="icon-share" viewBox="0 0 32 32">
<path fill="#151515" style="fill: var(--color1, #151515)" d="M0.206 16c0-8.598 6.971-15.568 15.568-15.568s15.568 6.969 15.568 15.568c0 8.598-6.97 15.568-15.568 15.568s-15.568-6.97-15.568-15.568z"></path>
<path fill="#fff" style="fill: var(--color2, #fff)" d="M9.399 19.432c1.865 0 3.376-1.512 3.376-3.376s-1.512-3.376-3.376-3.376v0c-1.865 0-3.376 1.512-3.376 3.376s1.512 3.376 3.376 3.376v0zM19.706 13.43c1.865 0 3.376-1.512 3.376-3.376s-1.512-3.376-3.376-3.376v0c-1.865 0-3.376 1.512-3.376 3.376s1.512 3.376 3.376 3.376v0zM19.706 25.323c1.865 0 3.376-1.512 3.376-3.376s-1.512-3.376-3.376-3.376v0c-1.865 0-3.376 1.512-3.376 3.376s1.512 3.376 3.376 3.376v0z"></path>
<path fill="#fff" style="fill: var(--color2, #fff)" d="M9.856 16.726l-0.913-1.569 10.307-6.002 0.913 1.569-10.307 6.002z"></path>
<path fill="#fff" style="fill: var(--color2, #fff)" d="M19.249 22.729l-10.307-6.002 0.913-1.569 10.307 6.002-0.913 1.568z"></path>
</symbol>
<symbol id="icon-facebook" viewBox="0 0 32 32">
<path d="M31.341 16.095c0-8.65-6.971-15.663-15.568-15.663s-15.568 7.012-15.568 15.663c0 7.817 5.693 14.296 13.136 15.472v-10.946h-3.952v-4.528h3.952v-3.448c0-3.925 2.325-6.094 5.881-6.094 1.701 0 3.484 0.306 3.484 0.306v3.855h-1.963c-1.935 0-2.538 1.207-2.538 2.446v2.936h4.317l-0.69 4.529h-3.626v10.945c7.444-1.176 13.137-7.656 13.137-15.472z"></path>
</symbol>
<symbol id="icon-youtube" viewBox="0 0 32 32">
<path d="M13.615 18.512l4.318-2.505-4.318-2.518v5.022z"></path>
<path d="M15.773 0.432c-8.598 0-15.568 6.97-15.568 15.568s6.97 15.568 15.568 15.568v0c8.598 0 15.568-6.97 15.568-15.568s-6.97-15.568-15.568-15.568v0zM23.967 18.755c0 1.712-1.387 3.1-3.099 3.101h-10.189c-1.712-0-3.099-1.388-3.099-3.1 0-0 0-0.001 0-0.001v0-5.51c0-0.001 0-0.001 0-0.002 0-1.712 1.387-3.099 3.099-3.1h10.188c1.712 0 3.1 1.388 3.1 3.1 0 0.001 0 0.001 0 0.002v-0 5.509z"></path>
</symbol>
</defs>
</svg>
